<?xml version="1.0" encoding="utf-8"?>
<!-- Generator: Adobe Illustrator 16.0.0, SVG Export Plug-In . SVG Version: 6.00 Build 0)  -->
<!DOCTYPE svg PUBLIC "-//W3C//DTD SVG 1.1//EN" "http://www.w3.org/Graphics/SVG/1.1/DTD/svg11.dtd">
<svg version="1.1" id="レイヤー_1" xmlns="http://www.w3.org/2000/svg" xmlns:xlink="http://www.w3.org/1999/xlink" x="0px"
	 y="0px" width="39.999px" height="30.004px" viewBox="0 0 39.999 30.004" enable-background="new 0 0 39.999 30.004"
	 xml:space="preserve">
<g>
	<path fill="#F5F6F7" d="M26.254,17.036l-2.106-1.051c0.242-1.313,0.242-2.656,0-3.97l2.106-1.051
		c0.63-0.368,0.874-1.137,0.626-1.817c-0.557-1.512-1.62-2.901-2.632-4.114c-0.464-0.556-1.271-0.693-1.896-0.331l-1.817,1.05
		c-1-0.856-2.163-1.532-3.433-1.98V1.671c0-0.732-0.532-1.35-1.25-1.476c-1.593-0.268-3.213-0.255-4.75,0.006
		c-0.712,0.126-1.226,0.75-1.226,1.47v2.107c-1.268,0.443-2.432,1.125-3.431,1.98L4.627,4.709C3.995,4.346,3.195,4.483,2.732,5.04
		C1.72,6.253,0.651,7.641,0.095,9.153c-0.257,0.682,0.024,1.45,0.656,1.812l2.083,1.056c-0.245,1.314-0.245,2.657,0,3.965
		L0.75,17.036c-0.631,0.368-0.907,1.136-0.656,1.816c0.556,1.508,1.625,2.896,2.638,4.107c0.462,0.557,1.269,0.694,1.895,0.331
		l1.818-1.043c1,0.856,2.164,1.533,3.431,1.982v2.1c0,0.729,0.532,1.349,1.25,1.476c1.594,0.273,3.206,0.262,4.744,0
		c0.713-0.127,1.231-0.752,1.231-1.476v-2.1c1.27-0.445,2.433-1.126,3.433-1.982l1.817,1.05c0.634,0.362,1.433,0.225,1.896-0.332
		c1.012-1.213,2.104-2.598,2.663-4.113C27.16,18.166,26.884,17.396,26.254,17.036z M16.796,17.304
		c-4.813,3.699-10.308-1.794-6.607-6.606C15.002,6.996,20.495,12.49,16.796,17.304z"/>
	<path fill="#F5F6F7" d="M39.904,22.234c-0.063-0.375-0.387-0.644-0.762-0.644h-1.033c-0.226-0.631-0.563-1.211-0.993-1.712
		l0.512-0.895c0.189-0.325,0.114-0.743-0.174-0.98c-0.596-0.495-1.271-0.888-2.007-1.163c-0.356-0.131-0.757,0.007-0.944,0.339
		l-0.513,0.892c-0.655-0.118-1.326-0.118-1.981,0l-0.511-0.892c-0.189-0.332-0.59-0.47-0.945-0.339
		c-0.729,0.275-1.412,0.668-2.006,1.163c-0.294,0.237-0.365,0.655-0.176,0.98l0.513,0.895c-0.43,0.501-0.77,1.081-0.994,1.712H26.86
		c-0.377,0-0.701,0.276-0.762,0.651c-0.135,0.781-0.127,1.568,0,2.319c0.061,0.373,0.385,0.644,0.762,0.644h1.029
		c0.225,0.632,0.564,1.211,0.994,1.713l-0.513,0.892c-0.189,0.325-0.11,0.745,0.176,0.982c0.594,0.493,1.269,0.888,2.006,1.162
		c0.355,0.132,0.756-0.006,0.945-0.338l0.511-0.894c0.655,0.12,1.33,0.12,1.981,0l0.513,0.894c0.188,0.332,0.588,0.47,0.944,0.338
		c0.732-0.274,1.411-0.669,2.007-1.162c0.292-0.237,0.363-0.657,0.174-0.982l-0.512-0.892c0.431-0.502,0.768-1.081,0.993-1.713
		h1.033c0.375,0,0.698-0.276,0.762-0.651C40.034,23.772,40.028,22.983,39.904,22.234z M31.354,25.041
		c-1.851-2.406,0.892-5.15,3.298-3.3C36.503,24.147,33.759,26.892,31.354,25.041z"/>
</g>
</svg>
