<?xml version="1.0" encoding="utf-8"?>
<!-- Generator: Adobe Illustrator 16.0.0, SVG Export Plug-In . SVG Version: 6.00 Build 0)  -->
<!DOCTYPE svg PUBLIC "-//W3C//DTD SVG 1.1//EN" "http://www.w3.org/Graphics/SVG/1.1/DTD/svg11.dtd">
<svg version="1.1" id="レイヤー_1" xmlns="http://www.w3.org/2000/svg" xmlns:xlink="http://www.w3.org/1999/xlink" x="0px"
	 y="0px" width="49.973px" height="40px" viewBox="0 0 49.973 40" enable-background="new 0 0 49.973 40" xml:space="preserve">
<g>
	<g>
		<rect x="7.169" y="9.555" fill="#FFFFFF" width="8.415" height="3.557"/>
	</g>
	<path fill="#FFFFFF" d="M18.391,9.555v3.557h8.415V9.555H18.391z M25.361,11.667h-5.527v-0.668h5.527V11.667z"/>
	<path fill="#FFFFFF" d="M7.169,18.222v3.557h8.415v-3.557H7.169z M14.139,20.334H8.612v-0.668h5.526V20.334z"/>
	<g>
		<rect x="7.169" y="26.889" fill="#FFFFFF" width="8.415" height="3.557"/>
	</g>
	<path fill="#FFFFFF" d="M30.809,35.49v1.345H3.165V3.165h27.644v13.29l3.166-2.601V2.277C33.975,1.021,32.952,0,31.696,0H2.277
		C1.021,0,0,1.021,0,2.277v35.445C0,38.979,1.021,40,2.277,40h29.419c1.256,0,2.278-1.021,2.278-2.277v-2.758L30.809,35.49z"/>
	<path fill="#FFFFFF" d="M25.674,20.675l1.132-0.931v-1.523h-8.415v3.557h6.338C24.978,21.36,25.295,20.986,25.674,20.675z"/>
	<polygon fill="#FFFFFF" points="21.943,29.001 19.834,29.001 19.834,28.333 22.194,28.333 22.737,26.889 18.391,26.889 
		18.391,30.445 21.4,30.445 	"/>
	<path fill="#FFFFFF" d="M25.137,33.455c-0.352-0.034-0.67-0.203-0.894-0.477c-0.3-0.364-0.383-0.865-0.217-1.307l3.084-8.209
		c0.082-0.217,0.22-0.409,0.398-0.557L42.24,10.801c0.273-0.225,0.617-0.329,0.969-0.294c0.352,0.034,0.67,0.204,0.895,0.477
		l5.566,6.775c0.226,0.273,0.33,0.618,0.296,0.97c-0.035,0.352-0.204,0.669-0.478,0.894l-14.73,12.104
		c-0.179,0.147-0.395,0.246-0.624,0.283l-8.651,1.434C25.368,33.463,25.252,33.467,25.137,33.455z M29.622,30.187l2.777-0.46
		l-0.226-0.824l-2.108-0.754l-0.331-2.214l-0.709-0.354l-1,2.662L29.622,30.187z M33.855,27.344l0.412,1.502L46.94,18.433
		l-4.027-4.901L30.264,23.926l1.326,0.66l0.308,2.057L33.855,27.344z"/>
</g>
</svg>
