<?xml version="1.0" encoding="utf-8"?>
<!-- Generator: Adobe Illustrator 16.0.0, SVG Export Plug-In . SVG Version: 6.00 Build 0)  -->
<!DOCTYPE svg PUBLIC "-//W3C//DTD SVG 1.1//EN" "http://www.w3.org/Graphics/SVG/1.1/DTD/svg11.dtd">
<svg version="1.1" id="レイヤー_1" xmlns="http://www.w3.org/2000/svg" xmlns:xlink="http://www.w3.org/1999/xlink" x="0px"
	 y="0px" width="55.581px" height="63.25px" viewBox="0 0 55.581 63.25" enable-background="new 0 0 55.581 63.25"
	 xml:space="preserve">
<g>
	<path fill="#E7AE35" d="M53.542,0H22.934c-1.123,0-2.038,0.915-2.038,2.039V24.31c0,1.124,0.915,2.039,2.038,2.039h30.608
		c1.124,0,2.039-0.915,2.039-2.039V2.039C55.581,0.915,54.666,0,53.542,0z M52.488,2.602L38.237,16.853L23.987,2.602H52.488z
		 M23.497,23.747V5.792l13.299,13.299c0.385,0.385,0.897,0.598,1.441,0.598c0.545,0,1.058-0.212,1.441-0.598l13.3-13.299v17.955
		H23.497z"/>
	<path fill="#E7AE35" d="M37.205,63.198c-0.174,0.051-0.359,0.066-0.548,0.042c-6.648-0.856-12.72-3.39-18.047-7.526
		c-4.236-3.289-8.005-7.592-11.202-12.787c-5.415-8.801-7.299-17.033-7.376-17.379c-0.147-0.661,0.22-1.329,0.857-1.559
		l10.444-3.754c0.599-0.216,1.267,0.019,1.601,0.562l6.451,10.503c0.297,0.484,0.259,1.102-0.097,1.545l-3.639,4.535
		c2.722,6.484,7.605,10.048,9.622,11.301l2.817-3.4c0.396-0.479,1.069-0.623,1.627-0.349c0.029,0.015,2.876,1.41,5.685,2.841
		c1.656,0.844,2.978,1.535,3.928,2.055c0.587,0.322,1.028,0.576,1.347,0.774c0.454,0.284,1.141,0.712,1.114,1.562
		c-0.009,0.295-0.015,0.49-1.899,5.486c-0.894,2.369-1.798,4.717-1.807,4.74C37.93,62.791,37.599,63.083,37.205,63.198z
		 M2.954,26.104c0.705,2.534,2.732,8.915,6.785,15.481c6.672,10.809,15.489,17.142,26.22,18.84c1.187-3.095,2.393-6.298,2.912-7.773
		c-1.563-0.906-5.54-2.939-9.388-4.838l-2.862,3.453c-0.397,0.48-1.071,0.624-1.629,0.35c-0.342-0.169-8.409-4.234-12.138-13.985
		c-0.17-0.446-0.092-0.948,0.207-1.321L16.6,31.9l-5.385-8.766L2.954,26.104z"/>
</g>
</svg>
