<?xml version="1.0" encoding="utf-8"?>
<!-- Generator: Adobe Illustrator 16.0.0, SVG Export Plug-In . SVG Version: 6.00 Build 0)  -->
<!DOCTYPE svg PUBLIC "-//W3C//DTD SVG 1.1//EN" "http://www.w3.org/Graphics/SVG/1.1/DTD/svg11.dtd">
<svg version="1.1" id="レイヤー_1" xmlns="http://www.w3.org/2000/svg" xmlns:xlink="http://www.w3.org/1999/xlink" x="0px"
	 y="0px" width="40px" height="46.07px" viewBox="0 0 40 46.07" enable-background="new 0 0 40 46.07" xml:space="preserve">
<g>
	<path fill="#FFFFFF" d="M12.311,35.641c2.229,3.414,6.083,5.675,10.456,5.675c6.881,0,12.479-5.599,12.479-12.479
		c0-4.139-2.024-7.812-5.136-10.083l0.681-5.165C36.263,16.48,40,22.229,40,28.836c0,9.503-7.73,17.233-17.233,17.233
		c-6.532,0-12.227-3.653-15.149-9.023L12.311,35.641z"/>
	<circle fill="#FFFFFF" cx="26.564" cy="4.576" r="4.576"/>
	<path fill="#FFFFFF" d="M0.107,38.518l4.159-13.43c0.308-0.996,1.229-1.674,2.271-1.674h15.427l0.449-2.971h-7.557
		c-1.313,0-2.377-1.064-2.377-2.377c0-1.313,1.063-2.377,2.377-2.377h8.276l0.486-3.208c0.196-1.298,1.407-2.191,2.706-1.995
		c1.298,0.196,2.19,1.408,1.994,2.706l-1.961,12.955c-0.176,1.162-1.176,2.021-2.351,2.021H8.289L4.648,39.925
		c-0.316,1.02-1.256,1.674-2.27,1.674c-0.233,0-0.471-0.034-0.705-0.106C0.42,41.104-0.281,39.772,0.107,38.518z"/>
</g>
</svg>
