<?xml version="1.0" encoding="utf-8"?>
<!-- Generator: Adobe Illustrator 16.0.0, SVG Export Plug-In . SVG Version: 6.00 Build 0)  -->
<!DOCTYPE svg PUBLIC "-//W3C//DTD SVG 1.1//EN" "http://www.w3.org/Graphics/SVG/1.1/DTD/svg11.dtd">
<svg version="1.1" id="レイヤー_1" xmlns="http://www.w3.org/2000/svg" xmlns:xlink="http://www.w3.org/1999/xlink" x="0px"
	 y="0px" width="64px" height="39.632px" viewBox="0 0 64 39.632" enable-background="new 0 0 64 39.632" xml:space="preserve">
<path fill="#E7AE35" d="M0.194,20.009c-0.219,0.305-0.255,0.706-0.098,1.045c0.159,0.34,0.488,0.568,0.861,0.6
	C6.12,22.06,11.28,22.289,16.44,22.449c0.012,0.064,0.008,0.129,0.032,0.193c0.064,0.164,0.148,0.498,0.22,0.896
	c0.072,0.404,0.138,0.877,0.198,1.371c0.118,0.99,0.209,2.051,0.3,2.844c0.105,0.92,0.241,2.539,0.348,3.914
	c0.108,1.377,0.188,2.514,0.188,2.518c0.039,0.561,0.513,0.984,1.074,0.967c1.055-0.043,2.036-0.4,2.951-0.805
	c0.912-0.406,1.763-0.877,2.463-1.205c3.093-1.457,6.226-2.77,9.406-4.088c3.237-1.344,6.397-2.77,9.609-4.016
	c0.763-0.301,1.695-0.795,2.641-1.215c0.892-0.406,1.8-0.699,2.289-0.711c0.048,0,0.098,0,0.146,0l0.127,0.014
	c0.161,0.037,0.318,0.025,0.47-0.012c2.674,0.008,5.345,0.01,8.011,0.037c0.42,0.004,1.082,0.059,1.801,0.115
	c0.724,0.053,1.511,0.109,2.253,0.109c0.483,0,0.947-0.021,1.387-0.096c0.378-0.072,0.751-0.17,1.123-0.422
	c0.007-0.004,0.013-0.01,0.021-0.014c0.051-0.035,0.103-0.064,0.153-0.105c0.028-0.025,0.041-0.059,0.066-0.084
	c0.024-0.025,0.056-0.039,0.079-0.068c0.021-0.029,0.026-0.063,0.044-0.092c0.039-0.061,0.07-0.121,0.094-0.189
	c0.023-0.061,0.041-0.121,0.053-0.186c0.011-0.066,0.014-0.129,0.013-0.195c-0.002-0.068-0.008-0.131-0.023-0.199
	c-0.014-0.063-0.034-0.121-0.06-0.182c-0.027-0.064-0.061-0.123-0.103-0.184c-0.02-0.027-0.026-0.063-0.05-0.09
	c-0.024-0.027-0.057-0.039-0.084-0.064c-0.025-0.025-0.039-0.057-0.068-0.08c-9.677-7.5-21.556-15.125-32.692-20.327
	c-0.442-0.206-0.76-0.376-1.1-0.525C29.49,0.128,29.09-0.002,28.645,0c-0.454,0.001-0.866,0.117-1.325,0.289
	c-0.69,0.262-1.336,0.645-1.959,1.024c-0.617,0.378-1.21,0.756-1.711,1.007c-1.68,0.846-2.435,1.229-3.184,1.712
	c-0.745,0.484-1.381,0.999-2.87,2.116c-0.286,0.215-0.442,0.561-0.412,0.917c0.029,0.358,0.239,0.674,0.557,0.839
	c2.095,1.087,4.4,2.246,6.782,3.282c-0.231-0.029-0.479-0.068-0.692-0.088c-5.084-0.452-6.808-0.951-7.239-1.154
	c-0.15-0.072-0.118-0.063-0.155-0.088c-0.024-0.011-0.097-0.108-0.362-0.225c-0.139-0.056-0.309-0.085-0.437-0.083
	c-0.205,0.002-0.315,0.038-0.408,0.062l-0.271,0.086c-0.651,0.221-1.38,0.605-2.2,1.092c-0.815,0.488-1.706,1.081-2.589,1.711
	c-1.769,1.264-3.492,2.655-4.515,3.675c-1.551,1.547-3.061,2.353-4.072,2.882c-0.342,0.181-0.624,0.323-0.891,0.497
	C0.539,19.661,0.38,19.761,0.194,20.009z M48.302,21.033c-0.024,0-0.05-0.008-0.073-0.008s-0.047,0.006-0.07,0.008
	c-3.039-0.012-6.068-0.035-9.091-0.129c-11.616-0.351-23.15-0.348-34.624-1.097c0.825-0.536,1.748-1.225,2.682-2.159
	c1.306-1.313,4.447-3.729,6.701-5.071c0.679-0.406,1.276-0.709,1.669-0.856c0.214,0.118,0.49,0.236,0.87,0.354
	c1.079,0.332,3.068,0.715,7.278,1.098c0.773,0.069,1.838,0.249,2.967,0.416c1.134,0.165,2.335,0.317,3.462,0.318
	c0.71-0.001,1.394-0.058,2.036-0.245c0.45-0.131,0.757-0.55,0.748-1.019c-0.009-0.468-0.332-0.875-0.787-0.99
	c-3.914-0.979-8.148-2.933-11.9-4.841c0.634-0.479,1.036-0.778,1.428-1.031c0.609-0.396,1.302-0.752,2.989-1.601
	c0.643-0.325,1.265-0.728,1.861-1.091c0.592-0.365,1.158-0.686,1.604-0.851c0.356-0.135,0.525-0.158,0.594-0.156
	c0.066,0.002,0.119,0.005,0.347,0.102c0.219,0.094,0.562,0.274,1.047,0.502c10.213,4.768,21.134,11.668,30.319,18.592
	c-0.482-0.02-0.984-0.049-1.483-0.086c-0.714-0.055-1.385-0.113-1.938-0.119C54.052,21.041,51.174,21.042,48.302,21.033z
	 M18.603,22.511c6.799,0.184,13.598,0.268,20.401,0.475c1.188,0.035,2.374,0.055,3.561,0.072c-0.026,0.012-0.063,0.029-0.088,0.039
	c-3.281,1.273-6.454,2.707-9.652,4.033c-3.187,1.32-6.35,2.648-9.496,4.129c-0.789,0.371-1.616,0.828-2.423,1.186
	c-0.41,0.186-0.812,0.338-1.188,0.447c-0.109-1.482-0.308-4.039-0.46-5.377c-0.131-1.121-0.268-2.959-0.518-4.346
	C18.698,22.937,18.653,22.718,18.603,22.511z"/>
</svg>
