<?xml version="1.0" encoding="utf-8"?>
<!-- Generator: Adobe Illustrator 16.0.0, SVG Export Plug-In . SVG Version: 6.00 Build 0)  -->
<!DOCTYPE svg PUBLIC "-//W3C//DTD SVG 1.1//EN" "http://www.w3.org/Graphics/SVG/1.1/DTD/svg11.dtd">
<svg version="1.1" id="レイヤー_1" xmlns="http://www.w3.org/2000/svg" xmlns:xlink="http://www.w3.org/1999/xlink" x="0px"
	 y="0px" width="36.975px" height="31.125px" viewBox="0 0 36.975 31.125" enable-background="new 0 0 36.975 31.125"
	 xml:space="preserve">
<path fill="#515555" d="M33.479,24.641c2.289-2.662,3.496-5.79,3.496-9.078C36.975,6.981,28.681,0,18.486,0
	C8.293,0,0,6.981,0,15.563s8.293,15.563,18.486,15.563c2.97,0,5.817-0.588,8.471-1.748l6.784,1.717
	c0.081,0.021,0.163,0.031,0.245,0.031c0.267,0,0.526-0.106,0.717-0.303c0.249-0.256,0.343-0.625,0.246-0.969L33.479,24.641z M8.7,19
	c-1.658,0-3-1.343-3-3s1.342-3,3-3s3,1.343,3,3S10.358,19,8.7,19z M18.7,19c-1.658,0-3-1.343-3-3s1.342-3,3-3s3,1.343,3,3
	S20.358,19,18.7,19z M28.7,19c-1.658,0-3-1.343-3-3s1.342-3,3-3s3,1.343,3,3S30.358,19,28.7,19z"/>
</svg>
