<?xml version="1.0" encoding="utf-8"?>
<!-- Generator: Adobe Illustrator 16.0.0, SVG Export Plug-In . SVG Version: 6.00 Build 0)  -->
<!DOCTYPE svg PUBLIC "-//W3C//DTD SVG 1.1//EN" "http://www.w3.org/Graphics/SVG/1.1/DTD/svg11.dtd">
<svg version="1.1" id="レイヤー_1" xmlns="http://www.w3.org/2000/svg" xmlns:xlink="http://www.w3.org/1999/xlink" x="0px"
	 y="0px" width="57px" height="40px" viewBox="-16.118 0 57 40" enable-background="new -16.118 0 57 40" xml:space="preserve">
<g>
	<path fill="#FFFFFF" d="M26.162,40c0.007-0.253,0.012-0.507,0.012-0.762c0-10.293-5.859-18.637-13.087-18.637S0,28.945,0,39.238
		C0,39.493,0.005,39.747,0.012,40H26.162z"/>
	<path fill="#FFFFFF" d="M14.196,0.062C13.832,0.021,13.462,0,13.087,0c-0.665,0-1.313,0.065-1.941,0.19
		C6.578,1.093,3.134,5.12,3.134,9.953c0,0.219,0.009,0.437,0.022,0.652c0.336,5.192,4.652,9.3,9.931,9.3
		c4.977,0,9.101-3.652,9.835-8.422c0.078-0.499,0.118-1.01,0.118-1.53C23.04,4.831,19.171,0.613,14.196,0.062z M13.087,17.873
		c-4.354,0-7.888-3.515-7.919-7.862c3.077-1.156,5.663-3.314,7.361-6.078c1.773,3.316,4.781,5.872,8.41,7.054
		C20.434,14.873,17.109,17.873,13.087,17.873z"/>
	<path fill="#FFFFFF" d="M32.732,7.945c-4.5,0-8.149,3.649-8.149,8.15c0,3.401,2.084,6.314,5.044,7.536
		c-0.848,1.21-1.969,2.235-3.311,2.969c0.705-0.043,1.416-0.16,2.123-0.365c1.412-0.406,2.662-1.105,3.703-2.012
		c0.194,0.014,0.392,0.021,0.59,0.021c4.502,0,8.149-3.648,8.149-8.149C40.882,11.594,37.234,7.945,32.732,7.945z M28.588,17.245
		c-0.727,0-1.313-0.588-1.313-1.313c0-0.725,0.588-1.313,1.313-1.313s1.313,0.588,1.313,1.313
		C29.9,16.657,29.313,17.245,28.588,17.245z M32.732,17.245c-0.726,0-1.313-0.588-1.313-1.313c0-0.725,0.588-1.313,1.313-1.313
		s1.313,0.588,1.313,1.313C34.046,16.657,33.457,17.245,32.732,17.245z M36.879,17.245c-0.727,0-1.313-0.588-1.313-1.313
		c0-0.725,0.588-1.313,1.313-1.313s1.313,0.588,1.313,1.313C38.191,16.657,37.604,17.245,36.879,17.245z"/>
</g>
</svg>
