<?xml version="1.0" encoding="utf-8"?>
<!-- Generator: Adobe Illustrator 16.0.0, SVG Export Plug-In . SVG Version: 6.00 Build 0)  -->
<!DOCTYPE svg PUBLIC "-//W3C//DTD SVG 1.1//EN" "http://www.w3.org/Graphics/SVG/1.1/DTD/svg11.dtd">
<svg version="1.1" id="レイヤー_1" xmlns="http://www.w3.org/2000/svg" xmlns:xlink="http://www.w3.org/1999/xlink" x="0px"
	 y="0px" width="80px" height="71.451px" viewBox="0 0 80 71.451" enable-background="new 0 0 80 71.451" xml:space="preserve">
<g>
	<path fill="#F5C100" d="M78.921,59.339l-31.927-55.3C45.557,1.548,42.876,0,39.999,0c-2.876,0-5.555,1.548-6.992,4.039
		L1.079,59.337c-1.438,2.49-1.438,5.585,0,8.076s4.118,4.038,6.994,4.038h63.854c2.876,0,5.558-1.547,6.994-4.038
		C80.36,64.922,80.36,61.827,78.921,59.339z M40,62.356c-2.761,0-5.002-2.239-5.002-5.001c0-2.761,2.241-4.999,5.002-4.999
		c2.76,0,4.999,2.238,4.999,4.999C45,60.117,42.76,62.356,40,62.356z M43.081,46.353c0,1.701-1.38,3.079-3.08,3.079
		c-1.703,0-3.081-1.378-3.081-3.079l-1.921-22.613c0-2.762,2.241-5.001,5.002-5.001c2.76,0,4.999,2.239,4.999,5.001L43.081,46.353z"
		/>
</g>
</svg>
