<?xml version="1.0" encoding="utf-8"?>
<!-- Generator: Adobe Illustrator 16.0.0, SVG Export Plug-In . SVG Version: 6.00 Build 0)  -->
<!DOCTYPE svg PUBLIC "-//W3C//DTD SVG 1.1//EN" "http://www.w3.org/Graphics/SVG/1.1/DTD/svg11.dtd">
<svg version="1.1" id="レイヤー_1" xmlns="http://www.w3.org/2000/svg" xmlns:xlink="http://www.w3.org/1999/xlink" x="0px"
	 y="0px" width="70px" height="58.361px" viewBox="0 0 70 58.361" enable-background="new 0 0 70 58.361" xml:space="preserve">
<path opacity="0.5" fill="#FF9999" d="M51.602,0l-4.313,8.958l5.188,7.113H24.39l1.779,9.4h3.072l0.71,2.378h-12.38l5.2-7.132
	l-4.324-8.982L0,28.949v29.412l35.994-4.735l3.326-11.16L70,46.501V17.168L51.602,0z M34.99,45.325H24.333v3.333h9.665l-0.58,1.944
	L3.332,54.562V30.446L17.41,17.269l1.493,3.096l-7.888,10.818h19.928h3.467h7.298l-0.523,2.76h-2.688v-0.007h-3.266h-3.468h-7.431
	v3.335h8.426h3.467h1.167L36.936,38.8l-0.257,0.86h-3.208h-9.138v3.332h11.352L34.99,45.325z M66.677,42.712L40.281,39.24
	l0.586-1.965h3.081l1.783-9.426H33.418l-0.711-2.383h13.024v-3.325H31.605v0.007h-2.681l-0.521-2.754h24.301l0.003,10.031h9.326
	l-6.006-3.323V15.299l-4.88-6.692l1.488-3.088l14.041,13.145V42.712z"/>
</svg>
