<?xml version="1.0" encoding="utf-8"?>
<!-- Generator: Adobe Illustrator 16.0.0, SVG Export Plug-In . SVG Version: 6.00 Build 0)  -->
<!DOCTYPE svg PUBLIC "-//W3C//DTD SVG 1.1//EN" "http://www.w3.org/Graphics/SVG/1.1/DTD/svg11.dtd">
<svg version="1.1" id="レイヤー_1" xmlns="http://www.w3.org/2000/svg" xmlns:xlink="http://www.w3.org/1999/xlink" x="0px"
	 y="0px" width="80px" height="72.286px" viewBox="0 0 80 72.286" enable-background="new 0 0 80 72.286" xml:space="preserve">
<g opacity="0.5">
	<g>
		<path fill="#FF9999" d="M26.059,20.149h44.553c1.748,0,3.17-1.421,3.17-3.17v-3.763l5.563-3.772
			c0.459-0.311,0.708-0.851,0.646-1.402c-0.062-0.551-0.424-1.022-0.94-1.224l-5.269-2.054V3.171c0-1.749-1.422-3.171-3.17-3.171
			H26.059c-1.748,0-3.171,1.422-3.171,3.171v13.808C22.888,18.728,24.311,20.149,26.059,20.149z M25.873,3.171
			c0-0.103,0.083-0.186,0.186-0.186h44.553c0.102,0,0.185,0.083,0.185,0.186v2.613c0,0.615,0.378,1.167,0.951,1.391l3.571,1.393
			l-3.867,2.622c-0.409,0.277-0.655,0.74-0.655,1.235v4.554c0,0.102-0.083,0.185-0.185,0.185H26.059
			c-0.103,0-0.186-0.083-0.186-0.185V3.171z"/>
		<path fill="#FF9999" d="M70.611,52.136H40.572c-1.748,0-3.171,1.424-3.171,3.172v13.808c0,1.749,1.423,3.17,3.171,3.17h30.039
			c1.748,0,3.17-1.421,3.17-3.17v-3.763l5.563-3.771c0.459-0.312,0.708-0.852,0.646-1.402c-0.062-0.551-0.424-1.022-0.94-1.225
			l-5.269-2.054v-1.593C73.781,53.56,72.359,52.136,70.611,52.136z M75.318,60.705l-3.867,2.622
			c-0.409,0.277-0.655,0.74-0.655,1.235v4.554c0,0.103-0.083,0.185-0.185,0.185H40.572c-0.103,0-0.186-0.082-0.186-0.185V55.308
			c0-0.104,0.083-0.187,0.186-0.187h30.039c0.102,0,0.185,0.083,0.185,0.187v2.613c0,0.615,0.378,1.167,0.951,1.391L75.318,60.705z"
			/>
		<path fill="#FF9999" d="M0.655,36.284l5.563,3.772v3.762c0,1.749,1.423,3.172,3.171,3.172h33.843c1.749,0,3.171-1.423,3.171-3.172
			V30.01c0-1.748-1.422-3.17-3.171-3.17H9.39c-1.748,0-3.171,1.422-3.171,3.17v1.594L0.95,33.659
			c-0.517,0.201-0.879,0.672-0.94,1.224C-0.053,35.433,0.196,35.973,0.655,36.284z M8.253,34.015c0.573-0.223,0.95-0.775,0.95-1.391
			V30.01c0-0.102,0.084-0.185,0.187-0.185h33.843c0.103,0,0.186,0.083,0.186,0.185v13.808c0,0.104-0.083,0.187-0.186,0.187H9.39
			c-0.103,0-0.187-0.083-0.187-0.187v-4.553c0-0.495-0.245-0.958-0.654-1.235l-3.867-2.622L8.253,34.015z"/>
		<circle fill="#FF9999" cx="30.796" cy="10.149" r="1.741"/>
		<circle fill="#FF9999" cx="39.519" cy="10.149" r="1.741"/>
		<circle fill="#FF9999" cx="48.241" cy="10.149" r="1.741"/>
		<circle fill="#FF9999" cx="56.964" cy="10.149" r="1.741"/>
		<circle fill="#FF9999" cx="65.686" cy="10.149" r="1.741"/>
		<circle fill="#FF9999" cx="17.332" cy="37.064" r="1.741"/>
		<circle fill="#FF9999" cx="26.054" cy="37.064" r="1.741"/>
		<circle fill="#FF9999" cx="34.776" cy="37.064" r="1.741"/>
		<circle fill="#FF9999" cx="47.083" cy="62.361" r="1.741"/>
		<circle fill="#FF9999" cx="55.806" cy="62.361" r="1.741"/>
		<circle fill="#FF9999" cx="64.527" cy="62.361" r="1.741"/>
	</g>
</g>
</svg>
