<?xml version="1.0" encoding="utf-8"?>
<!-- Generator: Adobe Illustrator 16.0.0, SVG Export Plug-In . SVG Version: 6.00 Build 0)  -->
<!DOCTYPE svg PUBLIC "-//W3C//DTD SVG 1.1//EN" "http://www.w3.org/Graphics/SVG/1.1/DTD/svg11.dtd">
<svg version="1.1" id="レイヤー_1" xmlns="http://www.w3.org/2000/svg" xmlns:xlink="http://www.w3.org/1999/xlink" x="0px"
	 y="0px" width="50px" height="67.814px" viewBox="0 0 50 67.814" enable-background="new 0 0 50 67.814" xml:space="preserve">
<g>
	<g>
		<path fill="#66CC99" d="M39.48,10.664V0H0v57.15h10.521v10.664H50V10.664H39.48z M2.657,2.654h34.17v51.844H2.657V2.654z
			 M31.346,57.15l-18.172,7.367V57.15H31.346z M47.344,65.161H18.654l20.826-8.442V13.316h7.863V65.161z"/>
		<rect x="10.394" y="7.54" fill="#66CC99" width="18.688" height="2.653"/>
		<rect x="10.394" y="14.463" fill="#66CC99" width="18.688" height="2.653"/>
		<path fill="#66CC99" d="M9.252,27.721V42.76h20.976V27.721l-10.484-5.243L9.252,27.721z M11.905,32.928h3.67v7.177h-3.67V32.928z
			 M21.253,32.928v7.177h-3.021v-7.177H21.253z M23.901,40.105v-7.177h3.669v7.177H23.901z M27.57,30.276H11.905v-0.913l7.838-3.913
			l7.827,3.913V30.276z"/>
	</g>
</g>
</svg>
