<?xml version="1.0" encoding="utf-8"?>
<!-- Generator: Adobe Illustrator 16.0.0, SVG Export Plug-In . SVG Version: 6.00 Build 0)  -->
<!DOCTYPE svg PUBLIC "-//W3C//DTD SVG 1.1//EN" "http://www.w3.org/Graphics/SVG/1.1/DTD/svg11.dtd">
<svg version="1.1" id="レイヤー_1" xmlns="http://www.w3.org/2000/svg" xmlns:xlink="http://www.w3.org/1999/xlink" x="0px"
	 y="0px" width="36px" height="32.483px" viewBox="0 0 36 32.483" enable-background="new 0 0 36 32.483" xml:space="preserve">
<path fill="#515555" d="M35.525,0.149c-0.295-0.183-0.663-0.198-0.973-0.044l-22.721,11.36L1.496,5.567
	c-0.31-0.176-0.69-0.176-0.998,0.004C0.189,5.75,0,6.079,0,6.436V26.16c0,0.356,0.189,0.686,0.498,0.865
	c0.307,0.179,0.688,0.18,0.998,0.004l10.442-5.959l22.615,11.308c0.142,0.07,0.294,0.105,0.447,0.105
	c0.183,0,0.365-0.05,0.525-0.149C35.82,32.152,36,31.83,36,31.483V1C36,0.653,35.82,0.332,35.525,0.149z"/>
</svg>
