<?xml version="1.0" encoding="utf-8"?>
<!-- Generator: Adobe Illustrator 16.0.0, SVG Export Plug-In . SVG Version: 6.00 Build 0)  -->
<!DOCTYPE svg PUBLIC "-//W3C//DTD SVG 1.1//EN" "http://www.w3.org/Graphics/SVG/1.1/DTD/svg11.dtd">
<svg version="1.1" id="レイヤー_1" xmlns="http://www.w3.org/2000/svg" xmlns:xlink="http://www.w3.org/1999/xlink" x="0px"
	 y="0px" width="70px" height="63.25px" viewBox="0 0 70 63.25" enable-background="new 0 0 70 63.25" xml:space="preserve">
<g>
	<g>
		<path fill="#E7AE35" d="M22.801,17.63h38.984c1.529,0,2.773-1.244,2.773-2.773v-3.292l4.868-3.3
			c0.401-0.272,0.618-0.745,0.563-1.228c-0.053-0.482-0.37-0.895-0.821-1.07l-4.61-1.798V2.774c0-1.53-1.244-2.774-2.773-2.774
			H22.801c-1.529,0-2.774,1.245-2.774,2.774v12.083C20.027,16.387,21.272,17.63,22.801,17.63z M22.639,2.774
			c0-0.09,0.072-0.163,0.162-0.163h38.984c0.088,0,0.161,0.073,0.161,0.163v2.287c0,0.539,0.331,1.021,0.832,1.217l3.124,1.219
			l-3.384,2.294c-0.356,0.242-0.572,0.647-0.572,1.081v3.984c0,0.089-0.073,0.162-0.161,0.162H22.801
			c-0.09,0-0.162-0.073-0.162-0.162V2.774z"/>
		<path fill="#E7AE35" d="M61.786,45.62H35.5c-1.529,0-2.774,1.246-2.774,2.775v12.082c0,1.53,1.245,2.773,2.774,2.773h26.285
			c1.529,0,2.773-1.243,2.773-2.773v-3.293l4.868-3.3c0.401-0.272,0.618-0.745,0.563-1.227c-0.053-0.482-0.37-0.895-0.821-1.071
			l-4.61-1.797v-1.395C64.559,46.866,63.315,45.62,61.786,45.62z M65.903,53.117l-3.384,2.295c-0.356,0.243-0.572,0.647-0.572,1.081
			v3.984c0,0.09-0.073,0.162-0.161,0.162H35.5c-0.09,0-0.162-0.072-0.162-0.162V48.395c0-0.09,0.072-0.163,0.162-0.163h26.285
			c0.088,0,0.161,0.073,0.161,0.163v2.287c0,0.537,0.331,1.021,0.832,1.217L65.903,53.117z"/>
		<path fill="#E7AE35" d="M0.573,31.749l4.868,3.3v3.292c0,1.53,1.245,2.774,2.774,2.774h29.613c1.53,0,2.774-1.244,2.774-2.774
			V26.259c0-1.529-1.244-2.773-2.774-2.773H8.215c-1.529,0-2.774,1.244-2.774,2.773v1.395l-4.61,1.798
			c-0.452,0.176-0.769,0.588-0.822,1.071C-0.047,31.004,0.171,31.477,0.573,31.749z M7.221,29.764
			c0.5-0.195,0.832-0.678,0.832-1.217v-2.288c0-0.089,0.073-0.162,0.162-0.162h29.613c0.09,0,0.162,0.073,0.162,0.162v12.082
			c0,0.091-0.072,0.163-0.162,0.163H8.215c-0.089,0-0.162-0.072-0.162-0.163v-3.983c0-0.434-0.215-0.839-0.574-1.082l-3.384-2.294
			L7.221,29.764z"/>
		<circle fill="#E7AE35" cx="26.947" cy="8.881" r="1.524"/>
		<circle fill="#E7AE35" cx="34.579" cy="8.881" r="1.524"/>
		<circle fill="#E7AE35" cx="42.211" cy="8.881" r="1.524"/>
		<circle fill="#E7AE35" cx="49.843" cy="8.881" r="1.524"/>
		<circle fill="#E7AE35" cx="57.474" cy="8.881" r="1.524"/>
		<circle fill="#E7AE35" cx="15.165" cy="32.432" r="1.524"/>
		<circle fill="#E7AE35" cx="22.797" cy="32.432" r="1.524"/>
		<circle fill="#E7AE35" cx="30.429" cy="32.432" r="1.524"/>
		<circle fill="#E7AE35" cx="41.198" cy="54.567" r="1.523"/>
		<circle fill="#E7AE35" cx="48.831" cy="54.567" r="1.523"/>
		<circle fill="#E7AE35" cx="56.461" cy="54.567" r="1.523"/>
	</g>
</g>
</svg>
