<?xml version="1.0" encoding="utf-8"?>
<!-- Generator: Adobe Illustrator 16.0.0, SVG Export Plug-In . SVG Version: 6.00 Build 0)  -->
<!DOCTYPE svg PUBLIC "-//W3C//DTD SVG 1.1//EN" "http://www.w3.org/Graphics/SVG/1.1/DTD/svg11.dtd">
<svg version="1.1" id="レイヤー_1" xmlns="http://www.w3.org/2000/svg" xmlns:xlink="http://www.w3.org/1999/xlink" x="0px"
	 y="0px" width="60px" height="63.322px" viewBox="0 0 60 63.322" enable-background="new 0 0 60 63.322" xml:space="preserve">
<g>
	<path fill="#FFFFFF" d="M58.97,61.26h-7.008v-2.112c0-4.838-1.289-8.571-3.834-11.098c-1.142-1.133-2.387-1.867-3.526-2.343V34.521
		c2.388-0.892,4.095-3.197,4.095-5.893c0-1.206-0.343-2.377-0.989-3.388c0.111-0.883,0.066-1.684,0.02-2.156
		c-0.08-0.777-0.431-1.429-1.018-1.886c-0.641-0.5-1.45-0.674-2.107-0.723v-3.35c0-6.57-1.701-11.119-5.198-13.907
		c-2.718-2.167-6.411-3.191-11.605-3.219C27.79,0.001,27.781,0,27.772,0c-0.027,0-0.054,0-0.081,0c-0.037,0-0.073,0-0.111,0
		c-0.014,0-0.025,0.001-0.039,0.002c-4.956,0.041-9.189,1.39-12.256,3.91c-3.874,3.185-5.838,8.089-5.838,14.58v32.743
		c0,0.099,0.015,0.193,0.041,0.283c-0.963,2.113-1.45,4.662-1.45,7.63v2.112H1.03C0.462,61.26,0,61.721,0,62.291
		c0,0.568,0.462,1.031,1.03,1.031H58.97c0.569,0,1.03-0.463,1.03-1.031C60,61.722,59.539,61.26,58.97,61.26L58.97,61.26z
		 M40.648,44.823h-5.164v-3.125c0-0.055-0.005-0.107-0.014-0.16c3.308-1.366,5.397-3.646,6.67-5.621
		c0.141-0.219,0.272-0.437,0.397-0.652v9.796C41.461,44.828,40.717,44.825,40.648,44.823L40.648,44.823z M42.538,29.515
		c-0.054,0.309-0.323,1.674-1.077,3.341h-7.007c-0.13,0-0.255,0.025-0.369,0.068c-0.277-0.299-0.672-0.489-1.113-0.489h-1.138
		c-0.838,0-1.518,0.679-1.518,1.517c0,0.837,0.68,1.516,1.518,1.516h1.138c0.488,0,0.922-0.231,1.198-0.591
		c0.091,0.025,0.186,0.04,0.284,0.04h5.876c-2.311,3.513-5.754,5.444-10.233,5.743h-0.193c-4.503-0.301-7.958-2.25-10.269-5.796
		c-1.613-2.477-2.1-4.928-2.173-5.35V18.158h9.239c0.569,0,1.031-0.462,1.031-1.031v-0.739l1.385,1.451
		c0.193,0.204,0.464,0.319,0.745,0.319h12.676V29.515z M26.577,45.854v-3.637c0.986,0.252,2.059,0.428,3.227,0.504
		c0.022,0.001,0.044,0.002,0.067,0.002h0.258c0.023,0,0.045-0.001,0.067-0.002c1.168-0.076,2.239-0.252,3.227-0.504v3.637
		c0,0.57,0.461,1.031,1.031,1.031h2.729c-0.4,3.609-3.468,6.427-7.183,6.427c-3.714,0-6.782-2.817-7.182-6.427h2.729
		C26.116,46.885,26.577,46.424,26.577,45.854L26.577,45.854z M46.634,28.629c0,1.527-0.815,2.869-2.033,3.611v-2.862
		c0.725-0.179,1.354-0.553,1.854-1.106c0.051-0.056,0.1-0.112,0.145-0.17C46.621,28.276,46.634,28.451,46.634,28.629L46.634,28.629z
		 M45.443,22.827c0.099,0.077,0.203,0.193,0.23,0.468c0.123,1.201-0.009,2.776-0.749,3.596c-0.099,0.109-0.207,0.2-0.323,0.275
		v-4.617C44.921,22.585,45.24,22.667,45.443,22.827L45.443,22.827z M11.51,18.492c0-14.234,10.101-16.411,16.184-16.429
		c7.164,0.018,14.445,1.762,14.828,14.034H30.304l-2.857-2.993c-0.29-0.305-0.737-0.401-1.128-0.245
		c-0.392,0.156-0.648,0.536-0.648,0.957v2.281h-9.239c-0.569,0-1.031,0.462-1.031,1.031v12.472c0,0.05,0.003,0.099,0.011,0.148
		c0.019,0.124,0.466,3.088,2.449,6.169c1.273,1.976,3.363,4.256,6.67,5.622c-0.009,0.052-0.014,0.105-0.014,0.16v3.125h-5.157
		c-0.178,0-4.243,0.006-7.486,3.226c-0.125,0.124-0.243,0.253-0.362,0.383V18.492z M10.101,59.147
		c0-12.12,8.869-12.262,9.251-12.263h1.395c0.408,4.749,4.402,8.488,9.254,8.488s8.846-3.739,9.252-8.488h1.406
		c0.045,0,1.113,0.008,2.506,0.479c0.038,0.017,0.079,0.03,0.12,0.043c1.058,0.372,2.286,1.01,3.391,2.107
		c2.141,2.125,3.226,5.366,3.226,9.634v2.112h-39.8V59.147z M10.101,59.147"/>
	<path fill="#FFFFFF" d="M23.912,22.955c0,0.68-0.55,1.23-1.23,1.23c-0.679,0-1.23-0.551-1.23-1.23s0.552-1.23,1.23-1.23
		C23.362,21.725,23.912,22.275,23.912,22.955L23.912,22.955z M23.912,22.955"/>
	<path fill="#FFFFFF" d="M38.549,22.955c0,0.679-0.552,1.23-1.23,1.23c-0.681,0-1.23-0.551-1.23-1.23s0.55-1.23,1.23-1.23
		C37.997,21.725,38.549,22.276,38.549,22.955L38.549,22.955z M38.549,22.955"/>
	<path fill="#FFFFFF" d="M28.852,26.574c-0.57,0-1.031,0.461-1.031,1.031c0,1.103,0.898,2,2.001,2h0.357
		c1.103,0,2.001-0.897,2.001-2c0-0.57-0.461-1.031-1.031-1.031c-0.548,0-0.997,0.429-1.029,0.97h-0.238
		C29.849,27.003,29.4,26.574,28.852,26.574L28.852,26.574z M28.852,26.574"/>
	<path fill="#FFFFFF" d="M26.965,33.334c-1.214-0.418-1.838-0.949-1.865-0.971c-0.42-0.378-1.067-0.347-1.45,0.072
		c-0.383,0.42-0.354,1.073,0.067,1.457c0.091,0.083,0.938,0.828,2.578,1.392c0.111,0.039,0.225,0.057,0.336,0.057
		c0.428,0,0.827-0.27,0.975-0.695C27.791,34.105,27.504,33.519,26.965,33.334L26.965,33.334z M26.965,33.334"/>
	<path fill="#FFFFFF" d="M44.27,56.287h-3.169c-0.57,0-1.032,0.462-1.032,1.031s0.462,1.031,1.032,1.031h3.169
		c0.569,0,1.03-0.462,1.03-1.031S44.839,56.287,44.27,56.287L44.27,56.287z M44.27,56.287"/>
</g>
</svg>
