<?xml version="1.0" encoding="utf-8"?>
<!-- Generator: Adobe Illustrator 16.0.0, SVG Export Plug-In . SVG Version: 6.00 Build 0)  -->
<!DOCTYPE svg PUBLIC "-//W3C//DTD SVG 1.1//EN" "http://www.w3.org/Graphics/SVG/1.1/DTD/svg11.dtd">
<svg version="1.1" id="レイヤー_1" xmlns="http://www.w3.org/2000/svg" xmlns:xlink="http://www.w3.org/1999/xlink" x="0px"
	 y="0px" width="64px" height="54.633px" viewBox="0 0 64 54.633" enable-background="new 0 0 64 54.633" xml:space="preserve">
<g id="_x35_6" opacity="0.5">
	<g>
		<path fill="#FF9999" d="M43.159,51.893H2.741V2.74h28.374v8.078H18.784c-0.758,0-1.371,0.612-1.371,1.37
			c0,0.757,0.613,1.37,1.371,1.37h12.358c0.033,0.31,0.153,0.606,0.373,0.828c0.256,0.255,0.607,0.401,0.969,0.401h10.675v3.315
			c0.844-0.668,1.763-1.238,2.741-1.709v-2.977c0-0.03-0.017-0.058-0.019-0.087c-0.008-0.122-0.03-0.238-0.07-0.354
			c-0.015-0.043-0.025-0.084-0.045-0.126c-0.066-0.146-0.15-0.285-0.269-0.402L33.453,0.402c-0.117-0.118-0.257-0.203-0.404-0.269
			c-0.04-0.019-0.08-0.029-0.121-0.044c-0.117-0.041-0.235-0.064-0.359-0.071C32.54,0.016,32.515,0,32.484,0H1.37
			C1.009,0,0.658,0.146,0.401,0.402C0.146,0.657,0,1.009,0,1.37v51.894c0,0.361,0.146,0.713,0.401,0.969
			c0.257,0.256,0.607,0.4,0.969,0.4h43.159c0.361,0,0.714-0.145,0.969-0.4c0.256-0.256,0.402-0.607,0.402-0.969V42.616
			c-0.979-0.471-1.897-1.041-2.741-1.709V51.893z M33.854,12.047V4.678l3.339,3.338l4.028,4.031H33.854z"/>
		<path fill="#FF9999" d="M14.104,7.906H8.281c-0.36,0-0.713,0.146-0.969,0.402C7.058,8.563,6.911,8.915,6.911,9.277V15.1
			c0,0.361,0.146,0.712,0.401,0.968c0.256,0.256,0.608,0.401,0.969,0.401h5.823c0.361,0,0.713-0.146,0.969-0.401
			c0.255-0.256,0.401-0.607,0.401-0.968V9.277c0-0.362-0.146-0.713-0.401-0.969C14.817,8.053,14.466,7.906,14.104,7.906z
			 M9.651,10.647h3.083v3.083H9.651V10.647z"/>
		<path fill="#FF9999" d="M14.104,19.558H8.281c-0.36,0-0.713,0.146-0.969,0.401c-0.255,0.256-0.401,0.607-0.401,0.969v5.823
			c0,0.361,0.146,0.713,0.401,0.969c0.256,0.255,0.608,0.402,0.969,0.402h5.823c0.361,0,0.713-0.146,0.969-0.402
			c0.255-0.255,0.401-0.607,0.401-0.969v-5.823c0-0.362-0.146-0.713-0.401-0.969C14.817,19.704,14.466,19.558,14.104,19.558z
			 M9.651,22.298h3.083v3.083H9.651V22.298z"/>
		<path fill="#FF9999" d="M36.479,22.47H18.784c-0.758,0-1.371,0.612-1.371,1.37s0.613,1.37,1.371,1.37h17.695
			c0.758,0,1.37-0.613,1.37-1.37S37.237,22.47,36.479,22.47z"/>
		<path fill="#FF9999" d="M14.104,31.209H8.281c-0.36,0-0.713,0.146-0.969,0.401c-0.255,0.256-0.401,0.606-0.401,0.97v5.822
			c0,0.361,0.146,0.713,0.401,0.969c0.256,0.256,0.608,0.401,0.969,0.401h5.823c0.361,0,0.713-0.146,0.969-0.401
			c0.255-0.256,0.401-0.607,0.401-0.969v-5.822c0-0.363-0.146-0.714-0.401-0.97C14.817,31.356,14.466,31.209,14.104,31.209z
			 M9.651,33.95h3.083v3.083H9.651V33.95z"/>
		<path fill="#FF9999" d="M36.479,34.122H18.784c-0.758,0-1.371,0.613-1.371,1.369c0,0.758,0.613,1.371,1.371,1.371h17.695
			c0.758,0,1.37-0.613,1.37-1.371C37.85,34.735,37.237,34.122,36.479,34.122z"/>
		<path fill="#FF9999" d="M52.183,17.688c-6.526,0-11.816,5.29-11.816,11.817c0,6.527,5.29,11.818,11.816,11.818
			C58.71,41.323,64,36.032,64,29.504C64,22.978,58.71,17.688,52.183,17.688z M58.945,26.85l-7.712,7.961
			c-0.296,0.307-0.724,0.457-1.145,0.408c-0.423-0.051-0.803-0.297-1.02-0.664l-3.234-5.473c-0.383-0.65-0.168-1.491,0.483-1.876
			c0.652-0.384,1.491-0.168,1.878,0.483l2.319,3.926l6.463-6.671c0.526-0.544,1.393-0.558,1.937-0.03
			C59.459,25.44,59.473,26.307,58.945,26.85z"/>
	</g>
</g>
</svg>
