<?xml version="1.0" encoding="utf-8"?>
<!-- Generator: Adobe Illustrator 16.0.0, SVG Export Plug-In . SVG Version: 6.00 Build 0)  -->
<!DOCTYPE svg PUBLIC "-//W3C//DTD SVG 1.1//EN" "http://www.w3.org/Graphics/SVG/1.1/DTD/svg11.dtd">
<svg version="1.1" id="レイヤー_1" xmlns="http://www.w3.org/2000/svg" xmlns:xlink="http://www.w3.org/1999/xlink" x="0px"
	 y="0px" width="54px" height="37px" viewBox="0 0 54 37" enable-background="new 0 0 54 37" xml:space="preserve">
<path fill="#FFFFFF" d="M18,37V27h8v10h2V27h8v10h18V0H0v37H18z M41,6h8v5h-8V6z M41,16h8v4h-8V16z M29,6h8v5h-8V6z M29,16h8v4h-8
	V16z M17,6h8v5h-8V6z M17,16h8v4h-8V16z M5,6h8v5H5V6z M5,16h8v4H5V16z"/>
</svg>
