<?xml version="1.0" encoding="utf-8"?>
<!-- Generator: Adobe Illustrator 16.0.0, SVG Export Plug-In . SVG Version: 6.00 Build 0)  -->
<!DOCTYPE svg PUBLIC "-//W3C//DTD SVG 1.1//EN" "http://www.w3.org/Graphics/SVG/1.1/DTD/svg11.dtd">
<svg version="1.1" id="レイヤー_1" xmlns="http://www.w3.org/2000/svg" xmlns:xlink="http://www.w3.org/1999/xlink" x="0px"
	 y="0px" width="313.239px" height="79.116px" viewBox="0 0 313.239 79.116" enable-background="new 0 0 313.239 79.116"
	 xml:space="preserve">
<g>
	<path fill="#F6C200" d="M267.719,10.802c0,1.937,1.57,3.507,3.504,3.507s3.51-1.571,3.51-3.507c0-1.931-1.576-3.502-3.51-3.502
		S267.719,8.871,267.719,10.802z"/>
	<path fill="#515555" d="M308.678,43.876c-2.864-2.534-6.988-4.38-11.607-5.199c-3.829-0.656-7.326-2.18-9.594-4.184
		c-1.874-1.659-2.736-3.46-2.43-5.072c0.34-1.779,2.106-3.369,4.848-4.363c6.27-2.273,15.545-0.676,20.253,3.489l0.13,0.115
		l2.962-3.348l-0.13-0.115c-5.986-5.294-16.853-7.202-24.739-4.342c-4.261,1.545-7.072,4.361-7.713,7.727
		c-0.616,3.225,0.756,6.512,3.858,9.257c2.856,2.525,6.964,4.368,11.566,5.192c3.846,0.652,7.357,2.179,9.634,4.192
		c1.874,1.659,2.739,3.458,2.431,5.072c-0.337,1.779-2.104,3.368-4.845,4.362c-6.27,2.273-15.546,0.674-20.255-3.489l-0.131-0.115
		l-2.961,3.349l0.129,0.115c5.986,5.295,16.855,7.203,24.74,4.344c4.262-1.547,7.072-4.363,7.714-7.729
		C313.153,49.91,311.78,46.622,308.678,43.876z M171.625,19.705h-3.756c-4.141,0.37-7.82,2.266-10.505,5.093v-5.274h-4.487v16.452
		c0,0,0,25.511,0,26.216h4.487c0-0.705,0-26.216,0-26.216c0-6.055,4.498-11.044,10.505-11.78h3.756V19.705z M108.102,53.683
		c-3.062,2.583-6.865,4.021-10.773,4.021c-4.5,0-8.729-1.754-11.908-4.935c-3.181-3.178-4.934-7.408-4.934-11.908
		c0-4.498,1.751-8.726,4.933-11.908c3.182-3.181,7.412-4.932,11.909-4.932c3.907,0,7.709,1.439,10.771,4.02
		c0.262-0.263,2.706-2.708,3.175-3.174c-3.919-3.426-8.846-5.335-13.946-5.335c-5.699,0-11.054,2.217-15.081,6.248
		c-4.03,4.029-6.249,9.387-6.249,15.081c0,5.699,2.219,11.054,6.247,15.081c4.027,4.03,9.383,6.249,15.083,6.249
		c5.1,0,10.026-1.908,13.946-5.334C110.849,56.428,108.433,54.014,108.102,53.683z M141.884,43.514c0,2.797,0,4.688,0,4.688
		c-0.012,5.247-4.286,9.512-9.529,9.512c-5.241,0-9.517-4.265-9.529-9.508c0,0,0-27.977,0-28.682h-4.486c0,0.705,0,28.678,0,28.678
		c0.008,7.721,6.296,14.002,14.016,14.002c3.68,0,7.025-1.439,9.529-3.77v3.758h4.487V48.198c0,0,0-1.887,0-4.684v-23.99h-4.487
		V43.514z M208.725,27.386l-2.432-2.231c-3.947-3.626-9.065-5.622-14.408-5.622c-11.763,0-21.33,9.569-21.33,21.329
		c0,11.762,9.567,21.33,21.33,21.33c5.347,0,10.461-1.994,14.408-5.621l2.432-2.229c0,0,0,7.195,0,7.85h4.486V19.524h-4.486
		C208.725,20.18,208.725,27.386,208.725,27.386z M191.885,57.705c-9.288,0-16.843-7.554-16.843-16.843
		c0-9.285,7.555-16.839,16.843-16.839c9.284,0,16.84,7.554,16.84,16.839C208.725,50.151,201.169,57.705,191.885,57.705z
		 M268.98,62.192h4.49V19.524h-4.49V62.192z M241.167,19.533c-6.843,0-12.933,3.249-16.835,8.275v-8.285h-4.482v59.592h4.482V54.35
		l2.431,2.23c3.948,3.617,9.064,5.611,14.404,5.611c11.763,0,21.327-9.568,21.327-21.33
		C262.494,29.103,252.93,19.533,241.167,19.533z M241.167,57.705c-9.163,0-16.714-7.462-16.835-16.628v-0.169
		c-0.005-9.331,7.549-16.885,16.835-16.885c9.288,0,16.841,7.554,16.841,16.839C258.008,50.151,250.455,57.705,241.167,57.705z"/>
</g>
<path fill="#515555" d="M33.829,32.318c-16.495-55.591-62.834-9.313-7.296,7.283c-55.556,16.526-9.199,62.861,7.289,7.288
	c16.612,55.573,62.856,9.248,7.276-7.288C96.689,23.04,50.433-23.273,33.829,32.318z"/>
<circle fill="#F6C200" cx="33.832" cy="4.558" r="4.558"/>
</svg>
